# xmcd
#
# Track frame offsets:
#	150
#	20913
#	40893
#	54973
#	75126
#	90938
#	108118
#	121036
#	134439
#	152418
#	168641
#	185434
#	204570
#	220943
#	238842
#	255155
#	269806
#	286139
#	300394
#	319086
#	339659
#
# Disc length: 4792 seconds
#
# Revision: 0
# Processed by: cddbd v1.4PL0 Copyright (c) Steve Scherf et al.
# Submitted via: dBpowerAMP V4.0
#
DISCID=1712b615
DTITLE=varios - sintonia do pagode 24
DYEAR=2003
DGENRE=pagode
TTITLE0=exalta samba - a carta
TTITLE1=revelação - novos tempos
TTITLE2=pique novo - história combinada
TTITLE3=g belo - valeu esperar
TTITLE4=gustavo lins - escondida
TTITLE5=sorriso maroto - me espera
TTITLE6=os travessos - bye bye
TTITLE7=imaginasamba - meu amigo
TTITLE8=picolé - compromisso
TTITLE9=alexandre pires - bum bum bum
TTITLE10=só pra contrariar - a rede
TTITLE11=salgadinho - numa boa
TTITLE12=karametade - deixa eu te amar
TTITLE13=bruno coinbra - convite ao prazer
TTITLE14=art popular - sem abuso
TTITLE15=tentasamba - madrugada
TTITLE16=segredo sensual - amor de infancia
TTITLE17=raça negra - dou a vida por um beijo
TTITLE18=alcione - ou ela ou eu
TTITLE19=arlindo cruz - será que é amor
TTITLE20=fundo de quintal - não tá nem aí
EXTD=
EXTT0=
EXTT1=
EXTT2=
EXTT3=
EXTT4=
EXTT5=
EXTT6=
EXTT7=
EXTT8=
EXTT9=
EXTT10=
EXTT11=
EXTT12=
EXTT13=
EXTT14=
EXTT15=
EXTT16=
EXTT17=
EXTT18=
EXTT19=
EXTT20=
PLAYORDER=
